<?xml version="1.0" encoding="UTF-8" standalone="no"?><!DOCTYPE svg PUBLIC "-//W3C//DTD SVG 1.1//EN" "http://www.w3.org/Graphics/SVG/1.1/DTD/svg11.dtd"><svg width="100%" height="100%" viewBox="0 0 1162 1184" version="1.1" xmlns="http://www.w3.org/2000/svg" xmlns:xlink="http://www.w3.org/1999/xlink" xml:space="preserve" style="fill-rule:evenodd;clip-rule:evenodd;stroke-linejoin:round;stroke-miterlimit:1.41421;"><g id="Layer-1"><clipPath id="_clip1"><path d="M171.491,509.018c-3.102,48.635 27.927,57.237 6.693,111.628c78.502,-64.329 77.322,-175.41 7.653,-203.834c26.841,45.504 -12.063,59.207 -14.346,92.206Z"/></clipPath><g clip-path="url(#_clip1)"><path d="M183.464,416.426l-32.488,199.796l93.497,15.203l32.488,-199.795l-93.497,-15.204Z" style="fill:url(#_Radial2);fill-rule:nonzero;"/></g><clipPath id="_clip3"><path d="M367.902,210.322c-69.808,18.361 -117.737,57.829 -139.28,103.25c-24.806,59.724 -11.75,126.426 43.039,161.244c-39.751,-60.639 25.669,-70.323 37.784,-97.983c9.48,-34.58 -27.363,-108.789 58.457,-163.041c1.46,-0.532 3.508,-3.587 0.994,-3.587c-0.274,0 -0.604,0.036 -0.994,0.117l0,0Z"/></clipPath><g clip-path="url(#_clip3)"><path d="M362.683,193.968l-215.727,115.948l96.715,179.944l215.727,-115.947l-96.715,-179.945l0,0Z" style="fill:url(#_Radial4);fill-rule:nonzero;"/></g><path d="M242.953,369.005c6.54,-52.075 27.663,-96.48 89.87,-138.044c-49.893,26.12 -92.086,86.042 -89.87,138.044l0,0Z" style="fill:url(#_Radial5);fill-rule:nonzero;"/><clipPath id="_clip6"><path d="M540.919,175.571c-185.59,0.219 -202.076,133.148 -202.515,134.636c-0.444,1.509 2.379,2.082 3.402,0c19.139,-43.172 74.417,-70.483 104.355,-71.1c26.649,-1.19 46.992,10.976 54.053,34.578c14.087,52.825 54.035,119.958 154.021,151.405c144.805,36.003 149.174,153.461 130.426,227.719c17.777,-133.94 -43.205,-208.197 -181.52,-181.915c118.33,8.221 138.563,111.209 128.419,177.679c-23.89,134.605 -169.113,154.881 -245.799,135.465c87.99,10.691 153.01,-43.535 160.296,-62.1c1.489,-1.409 -0.455,-3.219 -1.742,-2.078c-24.978,25.304 -73.341,6.66 -128.842,29.372c11.983,-9.972 23.175,-14.087 49.99,-16.928c116.82,-10.006 118.848,-75.089 120.022,-100.252c-9.273,18.98 -45.292,44.961 -141.331,57.689c-67.292,7.616 -114.605,32.855 -105.571,76.598c-82.026,-44.786 -75.474,-114.663 -71.306,-155.363c2.896,-28.274 19.474,-53.753 42.725,-48.051c17.382,5.707 40.526,8.655 62.782,2.941c15.416,-3.958 27.029,6.933 35.504,16.063c5.155,-23.879 -22.002,-60.102 -39.012,-66.982c1.363,-13.734 -15.382,-31.374 -43.334,-32.615c-14.98,-0.867 -32.646,5.987 -49.943,12.841c-20.699,8.203 -40.866,16.406 -55.262,11.371c-5.372,-3.89 -2.678,-13.663 0.894,-21.667c-3.908,-0.756 -23.422,11.45 -15.576,30.07c8.776,15.671 29.093,14.886 59.062,0.536c-133.452,73.291 -98.988,236.906 -87.634,284.213c-9.059,-8.867 -42.621,-56.858 -46.412,-62.074c-31.087,-46.369 -81.792,-70.466 -120.755,-34.411c3.142,-0.726 14.152,-3.58 25.492,-3.865c32.586,0.232 30.886,78.059 99.714,112.466c-38.829,0.701 -73.527,-69.23 -74.775,-72.067c-1.262,-2.867 -4.637,-5.335 -4.214,0c10.59,117.821 100.119,107.563 152.325,116.539c31.965,36.784 95.135,116.244 248.997,118.464c229.355,2.85 377.384,-176.464 382.767,-392.819c-5.366,-245.032 -181.597,-400.441 -393.028,-406.309c-1.944,-0.031 -3.847,-0.047 -5.755,-0.049l-0.92,0l0,0Z"/></clipPath><g clip-path="url(#_clip6)"><path d="M0,755.05l698.809,428.663l463.162,-755.049l-698.809,-428.664l-463.162,755.05l0,0Z" style="fill:url(#_Radial7);fill-rule:nonzero;"/></g><path d="M870.647,531.52c-26.44,-214.355 -214.551,-276.652 -264.375,-283.477c185.128,47.951 248.229,180.987 264.375,283.477" style="fill:#fff;fill-rule:nonzero;"/><path d="M576.822,219.205c0.044,-0.092 0.14,-0.148 0.241,-0.14c0.101,0.007 0.188,0.075 0.219,0.171l4.229,13.044l13.496,1.908c0.099,0.015 0.182,0.089 0.207,0.188c0.024,0.099 -0.014,0.203 -0.096,0.263l-11.015,8.093l2.355,13.517c0.017,0.1 -0.027,0.202 -0.113,0.255c-0.086,0.055 -0.196,0.051 -0.278,-0.009l-11.037,-8.041l-12.039,6.445c-0.09,0.048 -0.199,0.036 -0.276,-0.029c-0.079,-0.066 -0.109,-0.172 -0.078,-0.269l4.194,-13.063l-9.796,-9.534c-0.072,-0.07 -0.096,-0.178 -0.058,-0.274c0.038,-0.094 0.13,-0.156 0.231,-0.157l13.629,-0.032l5.985,-12.336l0,0Z" style="fill:#fff;fill-rule:nonzero;"/></g><defs><radialGradient id="_Radial2" cx="0" cy="0" r="1" gradientUnits="userSpaceOnUse" gradientTransform="matrix(-19.6049,120.564,370.492,60.2456,190.862,433.071)"><stop offset="0%" style="stop-color:#a2acf1;stop-opacity:1"/><stop offset="100%" style="stop-color:#625fdf;stop-opacity:1"/></radialGradient><radialGradient id="_Radial4" cx="0" cy="0" r="1" gradientUnits="userSpaceOnUse" gradientTransform="matrix(-105.371,56.6342,56.6342,105.371,309.799,333.071)"><stop offset="0%" style="stop-color:#e59f9c;stop-opacity:1"/><stop offset="100%" style="stop-color:#e52f2b;stop-opacity:1"/></radialGradient><radialGradient id="_Radial5" cx="0" cy="0" r="1" gradientUnits="userSpaceOnUse" gradientTransform="matrix(44.9769,0,0,-69.0223,287.862,300.009)"><stop offset="0%" style="stop-color:#fff;stop-opacity:1"/><stop offset="100%" style="stop-color:#b3b3b3;stop-opacity:1"/></radialGradient><radialGradient id="_Radial7" cx="0" cy="0" r="1" gradientUnits="userSpaceOnUse" gradientTransform="matrix(391.251,240.001,231.012,-376.598,439.862,575.446)"><stop offset="0%" style="stop-color:#e2c3ec;stop-opacity:1"/><stop offset="100%" style="stop-color:#a256ae;stop-opacity:1"/></radialGradient></defs></svg>